<svg width="50" height="50" viewBox="0 0 50 50" fill="none" xmlns="http://www.w3.org/2000/svg">
<g clip-path="url(#clip0_93_87)">
<path d="M25 0.000396729C11.2139 0.000396729 0 11.2151 0 25.0004C0 38.7858 11.2139 49.9996 25 49.9996C38.7853 49.9996 49.9999 38.7866 49.9999 25.0004C49.9999 11.2143 38.7861 0.000396729 25 0.000396729ZM25 46.8007C12.9793 46.8007 3.19975 37.0203 3.19975 24.9996C3.19975 12.9789 12.9793 3.19936 25 3.19936C37.0206 3.19936 46.8002 12.9798 46.8002 25.0004C46.8002 37.0211 37.0207 46.8007 25 46.8007Z" fill="white"/>
<path d="M24.9999 39.3074C26.1966 39.3074 27.1666 38.3374 27.1666 37.1408C27.1666 35.9441 26.1966 34.9741 24.9999 34.9741C23.8033 34.9741 22.8333 35.9441 22.8333 37.1408C22.8333 38.3374 23.8033 39.3074 24.9999 39.3074Z" fill="white"/>
<path d="M25.825 11.4084C25.734 11.4066 25.643 11.4058 25.552 11.4058C21.3105 11.4058 16.562 13.361 15.9146 17.7377C15.7855 18.6122 16.3887 19.4259 17.2632 19.5551C18.1377 19.686 18.9514 19.081 19.0806 18.2066C19.442 15.7635 22.7163 14.5466 25.7626 14.6081C28.7769 14.6679 31.9507 15.9524 32.2444 18.6858C32.4489 20.576 31.2122 21.4626 28.5385 22.9065C27.4223 23.5089 26.2679 24.1329 25.3977 24.9718C23.283 27.0068 23.2908 29.04 23.2968 30.6754L23.2977 30.9485C23.2977 31.8325 24.0136 32.5484 24.8976 32.5484C25.7807 32.5484 26.4966 31.8325 26.4966 30.9485V30.6625C26.4905 29.229 26.487 28.3632 27.6172 27.2764C28.1727 26.7399 29.0888 26.2459 30.0585 25.7224C32.5164 24.3947 35.8817 22.5772 35.4258 18.3427C34.9234 13.6739 30.2416 11.4969 25.825 11.4084Z" fill="white"/>
</g>
<defs>
<clipPath id="clip0_93_87">
<rect width="50" height="50" fill="white"/>
</clipPath>
</defs>
</svg>
