<svg width="50" height="50" viewBox="0 0 50 50" fill="none" xmlns="http://www.w3.org/2000/svg">
<g clip-path="url(#clip0_93_37)">
<path d="M27.9297 5.22461H22.0703C21.6658 5.22461 21.3379 5.55244 21.3379 5.95703V9.61914H17.6758C17.2713 9.61914 16.9434 9.94697 16.9434 10.3516V16.2109C16.9434 16.6155 17.2713 16.9434 17.6758 16.9434H21.3379V20.6055C21.3379 21.0101 21.6658 21.3379 22.0703 21.3379H27.9297C28.3343 21.3379 28.6621 21.0101 28.6621 20.6055V16.9434H32.3242C32.7288 16.9434 33.0566 16.6155 33.0566 16.2109V10.3516C33.0566 9.94697 32.7288 9.61914 32.3242 9.61914H28.6621V5.95703C28.6621 5.55244 28.3343 5.22461 27.9297 5.22461ZM31.5918 11.084V15.4785H27.9297C27.5251 15.4785 27.1973 15.8063 27.1973 16.2109V19.873H22.8027V16.2109C22.8027 15.8063 22.4748 15.4785 22.0703 15.4785H18.4082V11.084H22.0703C22.4748 11.084 22.8027 10.7562 22.8027 10.3516V6.68945H27.1973V10.3516C27.1973 10.7562 27.5251 11.084 27.9297 11.084H31.5918Z" fill="white"/>
<path d="M12.1541 23.0885C10.8421 21.7763 8.75703 21.6384 7.32422 22.7058V10.3799C8.17666 10.6822 8.78906 11.4964 8.78906 12.4512V19.7822C8.78906 20.1868 9.11699 20.5146 9.52148 20.5146C9.92598 20.5146 10.2539 20.1868 10.2539 19.7822V12.4512C10.2539 10.6571 8.95684 9.16142 7.25146 8.8497C6.91846 7.1914 5.48154 5.90781 3.76455 5.86083C2.76562 5.83281 1.82314 6.20126 1.1085 6.89658C0.393652 7.59208 0 8.52431 0 9.52148V28.9671C0 29.8523 0.230859 30.7271 0.667773 31.4972L7.79473 44.0585L7.32715 49.2013C7.3085 49.4062 7.37695 49.6096 7.51572 49.7614C7.65449 49.9133 7.85088 50 8.05664 50H23.5266C23.9311 50 24.259 49.6722 24.259 49.2676V37.9309C24.259 36.1657 23.5747 34.5092 22.3322 33.2664L12.1541 23.0885ZM22.7941 48.5351H8.85869L9.27432 43.9628C9.28779 43.8142 9.25557 43.6649 9.18193 43.5351L1.9418 30.7743C1.62979 30.2243 1.46484 29.5994 1.46484 28.9671V9.52148C1.46484 8.92314 1.70107 8.36386 2.13008 7.94648C2.55879 7.52939 3.1248 7.30908 3.72441 7.32509C4.90156 7.35742 5.85938 8.37001 5.85938 9.58242V25.6836C5.85938 25.6962 5.85967 25.7087 5.86035 25.7211C5.88164 26.6671 6.25918 27.5515 6.93203 28.2243L17.1493 38.4416C17.4354 38.7275 17.8991 38.7275 18.1851 38.4416C18.4711 38.1555 18.4711 37.6918 18.1851 37.4058L7.96777 27.1884C7.55371 26.7744 7.32607 26.2267 7.32422 25.6426V25.6285C7.32422 25.6205 7.32432 25.6124 7.32441 25.6044C7.33262 25.0062 7.57695 24.4499 8.0124 24.0376C8.86768 23.2279 10.2608 23.2667 11.1183 24.1242L21.2964 34.3022C22.2622 35.2683 22.7941 36.5569 22.7941 37.9309V48.5351Z" fill="white"/>
<path d="M48.8914 6.89657C48.1769 6.20126 47.2322 5.83378 46.2354 5.86083C44.5185 5.9079 43.0814 7.1914 42.7485 8.8497C41.0432 9.16142 39.7461 10.6571 39.7461 12.4512V19.7822C39.7461 20.1868 40.0739 20.5146 40.4785 20.5146C40.8831 20.5146 41.2109 20.1868 41.2109 19.7822V12.4512C41.2109 11.4964 41.8233 10.6822 42.6758 10.3799V22.7058C41.2428 21.6382 39.1579 21.7764 37.8459 23.0884L27.6677 33.2665C26.4252 34.5092 25.741 36.1657 25.741 37.9308V49.2676C25.741 49.6722 26.0688 50 26.4734 50H41.9434C42.1491 50 42.3454 49.9134 42.4842 49.7615C42.6229 49.6097 42.6914 49.4062 42.6727 49.2014L42.2053 44.0586L49.3322 31.4973C49.7691 30.7273 50 29.8524 50 28.9672V9.52147C50 8.52431 49.6063 7.59208 48.8914 6.89657ZM48.5352 28.9671C48.5352 29.5995 48.3702 30.2243 48.0581 30.7743L40.818 43.535C40.7443 43.6649 40.7121 43.814 40.7257 43.9628L41.1413 48.5351H27.2059V37.9308C27.2059 36.5569 27.7377 35.2682 28.7036 34.3023L38.8818 24.1241C39.7389 23.2669 41.1324 23.2279 41.9877 24.0376C42.4231 24.4499 42.6675 25.0062 42.6757 25.6044C42.6758 25.6125 42.6759 25.6206 42.6759 25.6286V25.6422C42.6741 26.2265 42.4464 26.7743 42.0322 27.1884L31.8148 37.4057C31.5288 37.6918 31.5288 38.1555 31.8148 38.4415C32.101 38.7274 32.5646 38.7274 32.8507 38.4415L43.0679 28.2242C43.7407 27.5514 44.1183 26.6671 44.1396 25.721C44.1403 25.7086 44.1406 25.6961 44.1406 25.6835V9.58241C44.1406 8.37001 45.0984 7.35741 46.2757 7.32509C46.8725 7.30976 47.4412 7.52929 47.8699 7.94647C48.2989 8.36386 48.5352 8.92313 48.5352 9.52147V28.9671Z" fill="white"/>
<path d="M38.2812 13.2812C38.2812 5.95801 32.3232 0 25 0C21.9797 0 19.1334 0.988281 16.7688 2.8582C16.4515 3.10908 16.3977 3.56963 16.6485 3.88701C16.8993 4.20439 17.3601 4.25801 17.6773 4.00713C19.7807 2.34395 22.3128 1.46484 25 1.46484C31.5156 1.46484 36.8164 6.76562 36.8164 13.2812C36.8164 19.7969 31.5156 25.0977 25 25.0977C18.4844 25.0977 13.1836 19.7969 13.1836 13.2812C13.1836 10.594 14.0627 8.06191 15.726 5.95859C15.9769 5.64121 15.923 5.18066 15.6058 4.92979C15.2885 4.67891 14.8278 4.73271 14.577 5.0499C12.7071 7.41465 11.7188 10.2609 11.7188 13.2812C11.7188 20.6045 17.6767 26.5625 25 26.5625C32.3232 26.5625 38.2812 20.6045 38.2812 13.2812Z" fill="white"/>
</g>
<defs>
<clipPath id="clip0_93_37">
<rect width="50" height="50" fill="white"/>
</clipPath>
</defs>
</svg>
