<svg width="50" height="50" viewBox="0 0 50 50" fill="none" xmlns="http://www.w3.org/2000/svg">
<g clip-path="url(#clip0_93_44)">
<path d="M41.4062 38.2812H42.9688V46.0938H41.4062V38.2812Z" fill="white"/>
<path d="M42.9688 36.7188H41.4062V2.34375C41.4062 2.13655 41.3239 1.93784 41.1774 1.79132C41.0309 1.64481 40.8322 1.5625 40.625 1.5625H9.375C9.1678 1.5625 8.96909 1.64481 8.82257 1.79132C8.67606 1.93784 8.59375 2.13655 8.59375 2.34375V5.46875H7.03125V2.34375C7.03125 1.72215 7.27818 1.12601 7.71772 0.686468C8.15726 0.24693 8.7534 0 9.375 0L40.625 0C41.2466 0 41.8427 0.24693 42.2823 0.686468C42.7218 1.12601 42.9688 1.72215 42.9688 2.34375V36.7188Z" fill="white"/>
<path d="M7.03125 7.03125H8.59375V8.59453H7.03125V7.03125Z" fill="white"/>
<path d="M7.03125 10.1562H8.59375V46.0938H7.03125V10.1562Z" fill="white"/>
<path d="M50 46.0938H48.4375V16.4062H44.5312V14.8438H48.4375C48.8519 14.8438 49.2493 15.0084 49.5424 15.3014C49.8354 15.5944 50 15.9918 50 16.4062V46.0938Z" fill="white"/>
<path d="M1.5625 46.0938H0V16.4062C0 15.9918 0.16462 15.5944 0.457646 15.3014C0.750671 15.0084 1.1481 14.8438 1.5625 14.8438H5.46875V16.4062H1.5625V46.0938Z" fill="white"/>
<path d="M30.4688 46.875H19.5312C19.324 46.875 19.1253 46.7927 18.9788 46.6462C18.8323 46.4997 18.75 46.301 18.75 46.0938V38.2812C18.75 38.074 18.8323 37.8753 18.9788 37.7288C19.1253 37.5823 19.324 37.5 19.5312 37.5H30.4688C30.676 37.5 30.8747 37.5823 31.0212 37.7288C31.1677 37.8753 31.25 38.074 31.25 38.2812V46.0938C31.25 46.301 31.1677 46.4997 31.0212 46.6462C30.8747 46.7927 30.676 46.875 30.4688 46.875ZM20.3125 45.3125H29.6875V39.0625H20.3125V45.3125Z" fill="white"/>
<path d="M24.2188 38.2812H25.7812V46.0938H24.2188V38.2812Z" fill="white"/>
<path d="M16.4062 35.9375H11.7188C11.5115 35.9375 11.3128 35.8552 11.1663 35.7087C11.0198 35.5622 10.9375 35.3635 10.9375 35.1562V30.4688C10.9375 30.2615 11.0198 30.0628 11.1663 29.9163C11.3128 29.7698 11.5115 29.6875 11.7188 29.6875H16.4062C16.6135 29.6875 16.8122 29.7698 16.9587 29.9163C17.1052 30.0628 17.1875 30.2615 17.1875 30.4688V35.1562C17.1875 35.3635 17.1052 35.5622 16.9587 35.7087C16.8122 35.8552 16.6135 35.9375 16.4062 35.9375ZM12.5 34.375H15.625V31.25H12.5V34.375Z" fill="white"/>
<path d="M27.3438 35.9375H22.6562C22.449 35.9375 22.2503 35.8552 22.1038 35.7087C21.9573 35.5622 21.875 35.3635 21.875 35.1562V30.4688C21.875 30.2615 21.9573 30.0628 22.1038 29.9163C22.2503 29.7698 22.449 29.6875 22.6562 29.6875H27.3438C27.551 29.6875 27.7497 29.7698 27.8962 29.9163C28.0427 30.0628 28.125 30.2615 28.125 30.4688V35.1562C28.125 35.3635 28.0427 35.5622 27.8962 35.7087C27.7497 35.8552 27.551 35.9375 27.3438 35.9375ZM23.4375 34.375H26.5625V31.25H23.4375V34.375Z" fill="white"/>
<path d="M38.2812 35.9375H33.5938C33.3865 35.9375 33.1878 35.8552 33.0413 35.7087C32.8948 35.5622 32.8125 35.3635 32.8125 35.1562V30.4688C32.8125 30.2615 32.8948 30.0628 33.0413 29.9163C33.1878 29.7698 33.3865 29.6875 33.5938 29.6875H38.2812C38.4885 29.6875 38.6872 29.7698 38.8337 29.9163C38.9802 30.0628 39.0625 30.2615 39.0625 30.4688V35.1562C39.0625 35.3635 38.9802 35.5622 38.8337 35.7087C38.6872 35.8552 38.4885 35.9375 38.2812 35.9375ZM34.375 34.375H37.5V31.25H34.375V34.375Z" fill="white"/>
<path d="M16.4062 28.125H11.7188C11.5115 28.125 11.3128 28.0427 11.1663 27.8962C11.0198 27.7497 10.9375 27.551 10.9375 27.3438V22.6562C10.9375 22.449 11.0198 22.2503 11.1663 22.1038C11.3128 21.9573 11.5115 21.875 11.7188 21.875H16.4062C16.6135 21.875 16.8122 21.9573 16.9587 22.1038C17.1052 22.2503 17.1875 22.449 17.1875 22.6562V27.3438C17.1875 27.551 17.1052 27.7497 16.9587 27.8962C16.8122 28.0427 16.6135 28.125 16.4062 28.125ZM12.5 26.5625H15.625V23.4375H12.5V26.5625Z" fill="white"/>
<path d="M27.3438 28.125H22.6562C22.449 28.125 22.2503 28.0427 22.1038 27.8962C21.9573 27.7497 21.875 27.551 21.875 27.3438V22.6562C21.875 22.449 21.9573 22.2503 22.1038 22.1038C22.2503 21.9573 22.449 21.875 22.6562 21.875H27.3438C27.551 21.875 27.7497 21.9573 27.8962 22.1038C28.0427 22.2503 28.125 22.449 28.125 22.6562V27.3438C28.125 27.551 28.0427 27.7497 27.8962 27.8962C27.7497 28.0427 27.551 28.125 27.3438 28.125ZM23.4375 26.5625H26.5625V23.4375H23.4375V26.5625Z" fill="white"/>
<path d="M38.2812 28.125H33.5938C33.3865 28.125 33.1878 28.0427 33.0413 27.8962C32.8948 27.7497 32.8125 27.551 32.8125 27.3438V22.6562C32.8125 22.449 32.8948 22.2503 33.0413 22.1038C33.1878 21.9573 33.3865 21.875 33.5938 21.875H38.2812C38.4885 21.875 38.6872 21.9573 38.8337 22.1038C38.9802 22.2503 39.0625 22.449 39.0625 22.6562V27.3438C39.0625 27.551 38.9802 27.7497 38.8337 27.8962C38.6872 28.0427 38.4885 28.125 38.2812 28.125ZM34.375 26.5625H37.5V23.4375H34.375V26.5625Z" fill="white"/>
<path d="M49.2188 50H0.78125C0.57405 50 0.375336 49.9177 0.228823 49.7712C0.08231 49.6247 0 49.426 0 49.2188V46.0938C0 45.8865 0.08231 45.6878 0.228823 45.5413C0.375336 45.3948 0.57405 45.3125 0.78125 45.3125H49.2188C49.4259 45.3125 49.6247 45.3948 49.7712 45.5413C49.9177 45.6878 50 45.8865 50 46.0938V49.2188C50 49.426 49.9177 49.6247 49.7712 49.7712C49.6247 49.9177 49.4259 50 49.2188 50ZM1.5625 48.4375H48.4375V46.875H1.5625V48.4375Z" fill="white"/>
<path d="M43.75 21.0938H45.3125V22.6562H43.75V21.0938Z" fill="white"/>
<path d="M46.0938 21.0938H47.6562V22.6562H46.0938V21.0938Z" fill="white"/>
<path d="M43.75 24.2188H45.3125V25.7812H43.75V24.2188Z" fill="white"/>
<path d="M46.0938 24.2188H47.6562V25.7812H46.0938V24.2188Z" fill="white"/>
<path d="M43.75 27.3438H45.3125V28.9062H43.75V27.3438Z" fill="white"/>
<path d="M46.0938 27.3438H47.6562V28.9062H46.0938V27.3438Z" fill="white"/>
<path d="M43.75 30.4688H45.3125V32.0312H43.75V30.4688Z" fill="white"/>
<path d="M46.0938 30.4688H47.6562V32.0312H46.0938V30.4688Z" fill="white"/>
<path d="M43.75 33.5938H45.3125V35.1562H43.75V33.5938Z" fill="white"/>
<path d="M46.0938 33.5938H47.6562V35.1562H46.0938V33.5938Z" fill="white"/>
<path d="M43.75 36.7188H45.3125V38.2812H43.75V36.7188Z" fill="white"/>
<path d="M46.0938 36.7188H47.6562V38.2812H46.0938V36.7188Z" fill="white"/>
<path d="M2.34375 21.0938H3.90625V22.6562H2.34375V21.0938Z" fill="white"/>
<path d="M4.6875 21.0938H6.25V22.6562H4.6875V21.0938Z" fill="white"/>
<path d="M2.34375 24.2188H3.90625V25.7812H2.34375V24.2188Z" fill="white"/>
<path d="M4.6875 24.2188H6.25V25.7812H4.6875V24.2188Z" fill="white"/>
<path d="M2.34375 27.3438H3.90625V28.9062H2.34375V27.3438Z" fill="white"/>
<path d="M4.6875 27.3438H6.25V28.9062H4.6875V27.3438Z" fill="white"/>
<path d="M2.34375 30.4688H3.90625V32.0312H2.34375V30.4688Z" fill="white"/>
<path d="M4.6875 30.4688H6.25V32.0312H4.6875V30.4688Z" fill="white"/>
<path d="M2.34375 33.5938H3.90625V35.1562H2.34375V33.5938Z" fill="white"/>
<path d="M4.6875 33.5938H6.25V35.1562H4.6875V33.5938Z" fill="white"/>
<path d="M2.34375 36.7188H3.90625V38.2812H2.34375V36.7188Z" fill="white"/>
<path d="M4.6875 36.7188H6.25V38.2812H4.6875V36.7188Z" fill="white"/>
<path d="M26.5625 16.4062H23.4375C23.2303 16.4062 23.0316 16.3239 22.8851 16.1774C22.7386 16.0309 22.6562 15.8322 22.6562 15.625V14.0625H21.0938C20.8865 14.0625 20.6878 13.9802 20.5413 13.8337C20.3948 13.6872 20.3125 13.4885 20.3125 13.2812V10.1562C20.3125 9.94905 20.3948 9.75034 20.5413 9.60382C20.6878 9.45731 20.8865 9.375 21.0938 9.375H22.6562V7.8125C22.6562 7.6053 22.7386 7.40659 22.8851 7.26007C23.0316 7.11356 23.2303 7.03125 23.4375 7.03125H26.5625C26.7697 7.03125 26.9684 7.11356 27.1149 7.26007C27.2614 7.40659 27.3438 7.6053 27.3438 7.8125V9.375H28.9062C29.1135 9.375 29.3122 9.45731 29.4587 9.60382C29.6052 9.75034 29.6875 9.94905 29.6875 10.1562V13.2812C29.6875 13.4885 29.6052 13.6872 29.4587 13.8337C29.3122 13.9802 29.1135 14.0625 28.9062 14.0625H27.3438V15.625C27.3438 15.8322 27.2614 16.0309 27.1149 16.1774C26.9684 16.3239 26.7697 16.4062 26.5625 16.4062ZM24.2188 14.8438H25.7812V13.2812C25.7812 13.074 25.8636 12.8753 26.0101 12.7288C26.1566 12.5823 26.3553 12.5 26.5625 12.5H28.125V10.9375H26.5625C26.3553 10.9375 26.1566 10.8552 26.0101 10.7087C25.8636 10.5622 25.7812 10.3635 25.7812 10.1562V8.59375H24.2188V10.1562C24.2188 10.3635 24.1364 10.5622 23.9899 10.7087C23.8434 10.8552 23.6447 10.9375 23.4375 10.9375H21.875V12.5H23.4375C23.6447 12.5 23.8434 12.5823 23.9899 12.7288C24.1364 12.8753 24.2188 13.074 24.2188 13.2812V14.8438Z" fill="white"/>
<path d="M25 19.5313C23.4548 19.5313 21.9444 19.0731 20.6596 18.2146C19.3749 17.3562 18.3735 16.136 17.7822 14.7085C17.1909 13.2809 17.0362 11.7101 17.3376 10.1946C17.6391 8.67913 18.3831 7.28708 19.4757 6.19448C20.5683 5.10188 21.9604 4.35782 23.4759 4.05637C24.9913 3.75492 26.5622 3.90964 27.9897 4.50094C29.4173 5.09225 30.6374 6.0936 31.4959 7.37836C32.3543 8.66312 32.8125 10.1736 32.8125 11.7188C32.8102 13.7901 31.9864 15.7759 30.5218 17.2405C29.0571 18.7051 27.0713 19.529 25 19.5313ZM25 5.46875C23.7639 5.46875 22.5555 5.83531 21.5277 6.52207C20.4999 7.20883 19.6988 8.18494 19.2258 9.32698C18.7527 10.469 18.6289 11.7257 18.8701 12.9381C19.1113 14.1504 19.7065 15.2641 20.5806 16.1382C21.4547 17.0122 22.5683 17.6075 23.7807 17.8487C24.9931 18.0898 26.2497 17.966 27.3918 17.493C28.5338 17.02 29.5099 16.2189 30.1967 15.1911C30.8834 14.1633 31.25 12.9549 31.25 11.7188C31.2481 10.0617 30.5891 8.47309 29.4174 7.30139C28.2457 6.12969 26.657 5.47061 25 5.46875Z" fill="white"/>
</g>
<defs>
<clipPath id="clip0_93_44">
<rect width="50" height="50" fill="white"/>
</clipPath>
</defs>
</svg>
