<svg width="50" height="50" viewBox="0 0 50 50" fill="none" xmlns="http://www.w3.org/2000/svg">
<g clip-path="url(#clip0_93_34)">
<path d="M24.9994 0C11.2143 0 0 11.215 0 25C0 38.7849 11.2143 50 24.9994 50C38.7848 50 50 38.7849 50 25C50 11.215 38.7847 0 24.9994 0ZM24.9994 47.561C12.5601 47.561 2.43913 37.4402 2.43913 25C2.43913 12.5602 12.5601 2.43913 24.9994 2.43913C37.4402 2.43913 47.5609 12.5602 47.5609 25C47.5609 37.4402 37.4402 47.561 24.9994 47.561ZM32.1916 38.6276V41.9373C32.1916 42.0766 32.0784 42.1885 31.9415 42.1885H19.7913C19.6529 42.1885 19.5413 42.076 19.5413 41.9373V38.6276C19.5413 38.4894 19.6535 38.3776 19.7913 38.3776H23.2916V20.7364H19.7553C19.6168 20.7364 19.5067 20.6245 19.5067 20.4872V17.1022C19.5067 16.9631 19.6175 16.8524 19.7553 16.8524H28.0459C28.184 16.8524 28.296 16.9637 28.296 17.1022V38.3776H31.9415C32.0784 38.3776 32.1916 38.4894 32.1916 38.6276ZM21.1493 10.6716C21.1493 8.56654 22.8548 6.86053 24.9604 6.86053C27.0646 6.86053 28.7712 8.56664 28.7712 10.6716C28.7712 12.7766 27.0646 14.4827 24.9604 14.4827C22.8542 14.4827 21.1493 12.7767 21.1493 10.6716Z" fill="white"/>
</g>
<defs>
<clipPath id="clip0_93_34">
<rect width="50" height="50" fill="white"/>
</clipPath>
</defs>
</svg>
